<svg xmlns="http://www.w3.org/2000/svg" xmlns:xlink="http://www.w3.org/1999/xlink" width="103" height="241" viewBox="0 0 103 241">
    <defs>
        <linearGradient id="a" x1="132.723%" x2="50%" y1="50%" y2="80.916%">
            <stop offset="0%" stop-color="#FF6B67"/>
            <stop offset="100%" stop-color="#F05971"/>
        </linearGradient>
        <linearGradient id="c" x1="50%" x2="58.702%" y1="120.387%" y2="61.214%">
            <stop offset="0%" stop-color="#70B8F9"/>
            <stop offset="100%" stop-color="#3D82F0"/>
        </linearGradient>
        <path id="b" d="M2.077 4.258c0 6.078-5.01 17.988 1.523 21.076 4.356 2.059 8.459-2.258 12.31-12.95C15.578 4.533 13.444.607 9.506.607 3.6.607 2.077-1.82 2.077 4.258z"/>
        <linearGradient id="e" x1="-25.803%" x2="42.446%" y1="68.985%" y2="42.568%">
            <stop offset="0%" stop-color="#47689B"/>
            <stop offset="100%" stop-color="#223762"/>
        </linearGradient>
        <linearGradient id="f" x1="-25.803%" x2="42.446%" y1="65.491%" y2="43.936%">
            <stop offset="0%" stop-color="#47689B"/>
            <stop offset="100%" stop-color="#223762"/>
        </linearGradient>
        <linearGradient id="h" x1="31.473%" x2="42.053%" y1="106.763%" y2="0%">
            <stop offset="0%" stop-color="#CFDDF3"/>
            <stop offset="100%" stop-color="#A1B8E3"/>
        </linearGradient>
        <path id="g" d="M48.664.194c8.554 31.32 13.388 50.542 14.502 57.668 1.67 10.69 5.758 46.822 5.181 52.649-2.792 2.845-7.822 1.142-8.699.62-.876-.522-6.274-30.25-10.984-41.783-4.71-11.532-15.308-22.146-22.292-33.749 0 5.035-1.797 14.289-5.392 27.762-5.243 23.794-8.756 37.616-10.54 41.467-1.27 2.05-7.68.547-10.166 0 0-5.413 5.36-32.76 5.36-42.254S4.153 35.874 3.6 28.82c-.554-7.053-1.908-20.737 0-28.627h45.065z"/>
        <linearGradient id="j" x1="89.265%" x2="79.854%" y1="53.951%" y2="47.108%">
            <stop offset="0%" stop-color="#CFDDF3" stop-opacity=".478"/>
            <stop offset="100%" stop-color="#A1B8E3"/>
        </linearGradient>
        <linearGradient id="l" x1="81.791%" x2="58.527%" y1="0%" y2="50%">
            <stop offset="0%" stop-color="#70B8F9"/>
            <stop offset="100%" stop-color="#3D82F0"/>
        </linearGradient>
        <path id="k" d="M15.759.329c1.155 2.237 2.712 3.831 4.67 4.78 1.958.95 3.426 1.658 4.404 2.123l-1.248 4.839c1.551 4.744 1.967 7.916 1.248 9.515-1.078 2.399-4.404 3.993-6.34 6.132-1.29 1.426-2.532 4.558-3.725 9.396H2.01l-.578-9.396C-.836 18.679-.046 11.851 3.802 7.232 7.651 2.613 11.636.312 15.76.329z"/>
        <linearGradient id="n" x1="50%" x2="67.002%" y1="0%" y2="56.409%">
            <stop offset="0%" stop-color="#164898"/>
            <stop offset="100%" stop-color="#223762"/>
        </linearGradient>
        <linearGradient id="o" x1="31.981%" x2="59.194%" y1="50%" y2="33.469%">
            <stop offset="0%" stop-color="#EDF3FD"/>
            <stop offset="100%" stop-color="#D6E3FA"/>
        </linearGradient>
        <path id="p" d="M28.437.556c6.047 1.594 10.851 4.498 14.414 8.711 5.344 6.32 4.153 25.333 5.667 36.649 1.514 11.316 8.1 19.541-2.073 25.927-10.174 6.386-38.938 4.936-41.29 0C3.585 68.553 1.907 56.795.12 36.571.12 18.37 1.19 8.5 3.334 6.966 5.476 5.43 9.047 3.18 14.048.216c-.112.451 1.038.9 3.45 1.347 2.412.447 6.059.112 10.94-1.007z"/>
        <linearGradient id="q" x1="49.049%" x2="53.147%" y1="57.782%" y2="23.718%">
            <stop offset="0%" stop-color="#CFDDF3"/>
            <stop offset="100%" stop-color="#A1B8E3"/>
        </linearGradient>
        <linearGradient id="s" x1="86.223%" x2="56.964%" y1="53.806%" y2="47.755%">
            <stop offset="0%" stop-color="#CFDDF3"/>
            <stop offset="100%" stop-color="#A1B8E3"/>
        </linearGradient>
        <linearGradient id="u" x1="50%" x2="50%" y1="166.803%" y2="20.389%">
            <stop offset="0%" stop-color="#70B8F9"/>
            <stop offset="100%" stop-color="#3D82F0"/>
        </linearGradient>
        <path id="t" d="M15.117 42.389l8.27 6.087c9.078-13.175 14.017-20.665 14.819-22.469 1.202-2.705.001-7.245.001-8.757 0-1.512.894-4.847 2.192-5.826 1.299-.978 1.451-.475 2.239-.475 4.07 1.473 10.347-5.175 11.882-5.739 1.536-.564 2.046 2.744 2.067 4.767.022 2.024-.88 6.783-2.437 9.45-1.557 2.666-6.732 6.914-6.732 8.092 0 1.177-8.602 18.99-11.723 26.195-3.12 7.204-6.063 12.068-12.31 10.05C19.221 62.42 13.337 58.3 5.732 51.407c1.487-3.515 2.951-5.825 4.392-6.932 1.442-1.106 3.106-1.801 4.993-2.085z"/>
        <linearGradient id="w" x1="22.107%" x2="22.107%" y1="11.214%" y2="79.611%">
            <stop offset="0%" stop-color="#D6E3FA"/>
            <stop offset="100%" stop-color="#E3EDFE"/>
        </linearGradient>
    </defs>
    <g fill="none" fill-rule="evenodd">
        <path fill="url(#a)" d="M26.983 26.567l-4.253 4.242a3.6 3.6 0 0 1-5.089 0l-4.252-4.242H3.6a3.6 3.6 0 0 1-3.6-3.6V3.6A3.6 3.6 0 0 1 3.6 0h33.664a3.6 3.6 0 0 1 3.6 3.6v19.367a3.6 3.6 0 0 1-3.6 3.6H26.983z" transform="translate(58.892 1.201)"/>
        <path fill="#FFF" d="M79.377 22.738c-16.517-9.003-4.571-20.196 0-12.658 4.572-7.538 16.518 3.655 0 12.658z"/>
        <g>
            <g transform="translate(.344 80.007)">
                <mask id="d" fill="#fff">
                    <use xlink:href="#b"/>
                </mask>
                <use fill="url(#c)" xlink:href="#b"/>
                <path fill="#3D82F0" d="M1.701 6.98c.527 1.07 7.706 6.729 8.893 8.067 1.188 1.338 1.459 4.836 2.14 4.474.455-.24.455-3.781 0-10.621C5.029 6.907 1.35 6.266 1.702 6.98z" mask="url(#d)" opacity=".5" style="mix-blend-mode:multiply"/>
            </g>
            <path fill="url(#e)" d="M.36 4.402c0 3.141-.811 7.066 0 8.626.813 1.56 4.838 2.38 6.165 2.38 1.328 0 1.772-2.238 3.834-1.087 2.062 1.152 13.815 1.087 14.579-3.584.763-4.67-5.195-4.67-7.845-4.67-2.65 0-5.456-1.29-9.391-4.64C3.767-1.92.36 1.263.36 4.403z" transform="translate(13.198 218.674)"/>
            <g stroke="#FFF" stroke-linecap="round" stroke-width="1.2">
                <path d="M27.76 226.44c-.603-2.11-.603-2.922-2.303-3.724M31.163 227.12c-.602-2.11-1.457-2.815-3.72-2.11"/>
            </g>
            <path fill="url(#f)" d="M.4 4.402c0 3.141-.9 7.066 0 8.626.898 1.56 5.354 2.38 6.824 2.38 1.47 0 1.961-2.238 4.244-1.087 2.283 1.152 15.294 1.087 16.14-3.584.844-4.67-5.751-4.67-8.685-4.67s-6.04-1.29-10.397-4.64C4.17-1.92.4 1.263.4 4.403z" transform="translate(72.162 225.237)"/>
            <g stroke="#FFF" stroke-linecap="round" stroke-width="1.2">
                <path d="M89.106 233.343c-.603-2.11-1.075-3.084-2.998-3.97M92.169 233.683c-.602-2.11-1.457-2.814-3.72-2.11"/>
            </g>
            <g transform="translate(13.619 116.06)">
                <mask id="i" fill="#fff">
                    <use xlink:href="#g"/>
                </mask>
                <use fill="url(#h)" xlink:href="#g"/>
                <path fill="#A1B8E3" d="M19.605 68.847c0-4.598 2.37-42.172 2.916-40.63.363 1.028 1.958 4.318 4.786 9.869-5.135 23.573-7.702 33.827-7.702 30.761z" mask="url(#i)" opacity=".5" style="mix-blend-mode:multiply"/>
                <path stroke="#FFF" stroke-linecap="round" stroke-width="1.2" d="M22.65 28.238c.663 2.784 3.22 6.65 4.4 8.956" mask="url(#i)"/>
                <path fill="url(#j)" d="M6.568 8.043c3 1.612 14.745 8.473 29.88 5.724 7.478-1.359 12.289-3.137 14.447-5.724 0-1.274-1.814-6.634-2.32-8.685-.507-2.05-45.68 6.71-42.007 8.685z" mask="url(#i)" opacity=".5" style="mix-blend-mode:multiply"/>
            </g>
            <g transform="translate(23.83 16.064)">
                <mask id="m" fill="#fff">
                    <use xlink:href="#k"/>
                </mask>
                <use fill="url(#l)" xlink:href="#k"/>
                <path fill="#3D82F0" d="M20.083 26.44c-3.22 0-8.244-2.849-9.211-3.823-.967-.973 8.051 9.559 7.298 11.236-.594 1.324-2.714 1.728-1.377 1.728 4.823 0 6.51-9.14 3.29-9.14z" mask="url(#m)" opacity=".5" style="mix-blend-mode:multiply"/>
            </g>
            <path fill="url(#n)" d="M25.258 43.307C14.01 32.801 5.102 23.834 12.784 11.34 20.466-1.154 38.34-5.354 41.681 9.834c0 4.344-1.605 7.677-4.815 9.998-.6 1.22-.109 2.479 1.474 3.774 1.583 1.296 1.583 2.479 0 3.549-3.126-2.01-5.098-1.676-5.914 1-1.225 4.014 3.296 5.45 3.296 6.455 1.038 2.461.486 4.818-1.658 7.07-1.097 1.085-4.032 1.627-8.806 1.627z" transform="translate(.004 .079)"/>
            <path fill="url(#o)" d="M13.656 57.48C5.628 71.552 1.129 80.137.16 83.234c-.969 3.096 3.53 5.54 13.495 7.33l6.237-26.552-6.237-6.532z" transform="translate(.004 .079)"/>
            <g transform="translate(11.236 49.736)">
                <mask id="r" fill="#fff">
                    <use xlink:href="#p"/>
                </mask>
                <use fill="#D6E3FA" xlink:href="#p"/>
                <path fill="url(#q)" d="M35.97 22.155c3.262 15.233 5.873 24.277 7.836 27.132 2.944 4.283 4.858 17.243 7.214 18.789 2.356 1.545 5.741-16.134 4.049-22.187-1.129-4.036-4.236-10.995-9.321-20.88l-9.778-2.854z" mask="url(#r)" opacity=".5"/>
                <path fill="url(#s)" d="M16.202 1.781c2.177 1.443 7.85 2.224 12.619 2.224 4.768 0 6.26.05 8.541-.643 2.282-.694 1.397-1.58 0-1.58S31.632.762 29.3.762c-2.332 0-15.275-.425-13.098 1.018z" mask="url(#r)" opacity=".5"/>
            </g>
            <path fill="#E1ECFF" d="M24.871 50.292c-.187-2.33-.28-3.871-.28-4.622 0-1.128 9.394.464 16.154 1.096.733 2.812.603 2.998.603 3.526 0 .264-1.688 2.526-10.77 1.792-2.211-.178-4.113-.776-5.707-1.792z"/>
            <g>
                <path fill="#A1B8E3" d="M71.833 77.343c2.027-4.549 3.175-11.574 1.029-12.528-2.146-.955-5.19 3.891-7.218 8.44-2.027 4.549-.77 7.495.472 8.72 1.393.288 3.69-.083 5.717-4.632z"/>
                <g transform="rotate(-26 95.504 -69.057)">
                    <mask id="v" fill="#fff">
                        <use xlink:href="#t"/>
                    </mask>
                    <use fill="url(#u)" transform="rotate(12 31.16 34.685)" xlink:href="#t"/>
                    <path fill="#3D82F0" d="M16.212 41.186c-4.648 6.464-7.1 10.918-7.356 13.362-.256 2.444-1.745 1.19-4.468-3.762 1.556-2.982 2.988-5.005 4.296-6.067 1.309-1.063 3.818-2.24 7.528-3.533z" mask="url(#v)" opacity=".5" style="mix-blend-mode:multiply"/>
                    <path stroke="#223762" stroke-linecap="round" stroke-width="1.2" d="M20.633 46.22c.373.455 1.117 1.242 1.382 2.771" mask="url(#v)"/>
                </g>
                <path fill="url(#w)" d="M13.713 53.74c3.308-4.34 7.924-10.282 13.707-12.366C16.57 28.758 13.266 24.55 9.846 20.6c-3.42-3.949-13.278 6.28-7.976 16.343 5.3 10.062 10.044 14.667 11.843 16.796z" transform="rotate(-26 100.95 -45.468)"/>
            </g>
        </g>
    </g>
</svg>
