<svg xmlns="http://www.w3.org/2000/svg" width="227" height="380" viewBox="0 0 227 380">
    <defs>
        <linearGradient id="a" x1="50%" x2="50%" y1="0%" y2="100%">
            <stop offset="0%" stop-color="#CFDDF3"/>
            <stop offset="100%" stop-color="#A1B8E3"/>
        </linearGradient>
        <linearGradient id="b" x1="68.037%" x2="50%" y1="-30.265%" y2="100%">
            <stop offset="0%" stop-color="#CFDDF3"/>
            <stop offset="100%" stop-color="#A1B8E3"/>
        </linearGradient>
    </defs>
    <g fill="none" fill-rule="evenodd">
        <path stroke="url(#a)" stroke-linecap="round" stroke-width="6" d="M56.968 407.917c0-50 41.796-204.734 98.212-289.4" transform="translate(-8 -31)"/>
        <path fill="url(#b)" d="M106.307 148.154c9.667-13.58 14.5-28.747 14.5-45.5 0-25.129-6.492-45.5-14.5-45.5s-14.5 20.371-14.5 45.5c0 16.753 4.834 31.92 14.5 45.5z" transform="rotate(-30 44.46 102.082)"/>
        <path fill="url(#b)" d="M188.978 194.58c9.667-13.582 14.5-28.748 14.5-45.5 0-25.13-6.492-45.5-14.5-45.5s-14.5 20.37-14.5 45.5c0 16.752 4.834 31.918 14.5 45.5z" transform="rotate(88 201.029 129.437)"/>
        <path fill="url(#b)" d="M161.978 260.58c9.667-13.582 14.5-28.748 14.5-45.5 0-25.13-6.492-45.5-14.5-45.5s-14.5 20.37-14.5 45.5c0 16.752 4.834 31.918 14.5 45.5z" transform="rotate(91 173.21 195.648)"/>
        <path fill="url(#b)" d="M139.976 324.582c9.667-13.58 14.5-28.748 14.5-45.5 0-25.13-6.492-45.5-14.5-45.5s-14.5 20.37-14.5 45.5c0 16.752 4.833 31.92 14.5 45.5z" transform="rotate(91 151.208 259.651)"/>
        <path fill="url(#b)" d="M184.74 116.325c9.667-13.58 14.5-28.747 14.5-45.5 0-25.129-6.491-45.5-14.5-45.5-8.007 0-14.5 20.371-14.5 45.5 0 16.753 4.834 31.92 14.5 45.5z" transform="rotate(33 233.068 41.821)"/>
        <path fill="url(#b)" d="M70.333 217.975c9.667-13.58 14.5-28.747 14.5-45.5 0-25.129-6.492-45.5-14.5-45.5s-14.5 20.371-14.5 45.5c0 16.753 4.833 31.92 14.5 45.5z" transform="rotate(-41 24.877 167.673)"/>
        <path fill="url(#b)" d="M43.333 287.975c9.667-13.58 14.5-28.747 14.5-45.5 0-25.129-6.492-45.5-14.5-45.5s-14.5 20.371-14.5 45.5c0 16.753 4.833 31.92 14.5 45.5z" transform="rotate(-47 3.686 236.174)"/>
    </g>
</svg>
