<svg xmlns="http://www.w3.org/2000/svg" width="32" height="23" viewBox="0 0 32 23">
    <path fill="#2444B9" fill-rule="nonzero" d="M30.753 2.054C29.598.664 27.465.096 23.393.096H8.607C4.44.096 2.273.7 1.122 2.18 0 3.624 0 5.75 0 8.695v5.61c0 5.704 1.331 8.6 8.608 8.6h14.784c3.532 0 5.49-.501 6.756-1.729C31.446 19.918 32 17.863 32 14.306V8.694c0-3.105-.087-5.244-1.247-6.641zm-10.209 10.22l-6.713 3.554a1.02 1.02 0 0 1-1.013-.032 1.048 1.048 0 0 1-.498-.894V7.817c0-.365.188-.704.496-.893a1.02 1.02 0 0 1 1.012-.034l6.714 3.53c.341.18.556.537.556.927s-.213.747-.554.928z"/>
</svg>
